<svg width="300" height="360" viewBox="0 0 300 360" fill="none" xmlns="http://www.w3.org/2000/svg">
<path d="M0 360V0H171C197.667 0 220.5 4.66667 239.5 14C258.833 23.3333 273.667 36.3333 284 53C294.667 69.6667 300 89.1667 300 111.5C300 133.833 294.667 153.5 284 170.5C273.333 187.5 258.333 200.833 239 210.5C220 219.833 197.333 224.5 171 224.5H61V165.5H167C184.667 165.5 198.333 160.667 208 151C218 141 223 128 223 112C223 96 218 83.1667 208 73.5C198.333 63.8333 184.667 59 167 59H77V360H0Z" fill="black"/>
</svg>
