<svg width="1822" height="370" viewBox="0 0 1822 370" fill="none" xmlns="http://www.w3.org/2000/svg">
<path d="M1610.59 365V219.5L1476.59 5H1569.09L1675.09 195.5H1631.59L1737.09 5H1821.59L1687.59 219.5V365H1610.59Z" fill="black"/>
<path d="M1183.55 365V5H1344.55C1370.55 5 1393.21 9.5 1412.55 18.5C1431.88 27.1667 1446.88 39.5 1457.55 55.5C1468.21 71.5 1473.55 90.1667 1473.55 111.5C1473.55 132.5 1468.21 151 1457.55 167C1446.88 182.667 1431.88 195 1412.55 204C1393.21 212.667 1370.55 217 1344.55 217H1244.55V160.5H1342.55C1360.88 160.5 1374.88 156.333 1384.55 148C1394.55 139.333 1399.55 127.333 1399.55 112C1399.55 96.3333 1394.71 84.5 1385.05 76.5C1375.38 68.1667 1361.21 64 1342.55 64H1260.55V365H1183.55ZM1386.55 365L1242.05 178H1323.55L1490.55 365H1386.55Z" fill="black"/>
<path d="M961.121 370C934.454 370 909.788 365.5 887.121 356.5C864.788 347.5 845.288 334.833 828.621 318.5C812.288 301.833 799.454 282.167 790.121 259.5C781.121 236.5 776.621 211.167 776.621 183.5C776.621 146.833 784.454 114.833 800.121 87.5C815.788 59.8333 837.454 38.3333 865.121 23C893.121 7.66667 924.954 0 960.621 0C996.954 0 1028.95 7.66667 1056.62 23C1084.29 38.3333 1105.95 59.8333 1121.62 87.5C1137.62 115.167 1145.62 147.333 1145.62 184C1145.62 211.333 1140.95 236.5 1131.62 259.5C1122.62 282.167 1109.79 301.833 1093.12 318.5C1076.79 334.833 1057.29 347.5 1034.62 356.5C1012.29 365.5 987.788 370 961.121 370ZM960.621 309C981.621 309 1000.12 303.667 1016.12 293C1032.12 282.333 1044.62 267.667 1053.62 249C1062.95 230 1067.62 208 1067.62 183C1067.62 158.333 1063.12 136.833 1054.12 118.5C1045.12 100.167 1032.62 86 1016.62 76C1000.62 66 981.954 61 960.621 61C939.621 61 921.121 66 905.121 76C889.121 86 876.621 100.167 867.621 118.5C858.954 136.5 854.621 158 854.621 183C854.621 208.333 859.121 230.5 868.121 249.5C877.121 268.167 889.621 282.833 905.621 293.5C921.621 303.833 939.954 309 960.621 309Z" fill="black"/>
<path d="M695.891 365L596.391 207.5L457.391 5H547.391L640.891 153.5L785.891 365H695.891ZM607.391 153L704.391 5H785.891L632.891 217.5L607.391 153ZM624.891 219.5L529.391 365H447.891L599.391 155L624.891 219.5Z" fill="black"/>
<path d="M335.938 365V5H412.938V365H335.938Z" fill="black"/>
<path d="M0 365V5H171C197.667 5 220.5 9.66667 239.5 19C258.833 28.3333 273.667 41.3333 284 58C294.667 74.6667 300 94.1667 300 116.5C300 138.833 294.667 158.5 284 175.5C273.333 192.5 258.333 205.833 239 215.5C220 224.833 197.333 229.5 171 229.5H61V170.5H167C184.667 170.5 198.333 165.667 208 156C218 146 223 133 223 117C223 101 218 88.1667 208 78.5C198.333 68.8333 184.667 64 167 64H77V365H0Z" fill="black"/>
</svg>
